<?xml version="1.0" encoding="UTF-8" standalone="no"?>
<!-- Created with Inkscape (http://www.inkscape.org/) -->

<svg
   width="154.76422mm"
   height="34.983185mm"
   viewBox="0 0 154.76422 34.983185"
   version="1.1"
   id="svg5"
   inkscape:version="1.1.1 (3bf5ae0d25, 2021-09-20)"
   sodipodi:docname="physhe-logo.svg"
   xmlns:inkscape="http://www.inkscape.org/namespaces/inkscape"
   xmlns:sodipodi="http://sodipodi.sourceforge.net/DTD/sodipodi-0.dtd"
   xmlns="http://www.w3.org/2000/svg"
   xmlns:svg="http://www.w3.org/2000/svg">
  <sodipodi:namedview
     id="namedview7"
     pagecolor="#ffffff"
     bordercolor="#666666"
     borderopacity="1.0"
     inkscape:pageshadow="2"
     inkscape:pageopacity="0.0"
     inkscape:pagecheckerboard="0"
     inkscape:document-units="mm"
     showgrid="false"
     showguides="true"
     inkscape:guide-bbox="true"
     inkscape:zoom="0.46324355"
     inkscape:cx="268.75712"
     inkscape:cy="57.20533"
     inkscape:window-width="1366"
     inkscape:window-height="705"
     inkscape:window-x="-8"
     inkscape:window-y="-8"
     inkscape:window-maximized="1"
     inkscape:current-layer="text15670"
     fit-margin-top="0"
     fit-margin-left="0"
     fit-margin-right="0"
     fit-margin-bottom="0">
    <sodipodi:guide
       position="3.7209319,121.34449"
       orientation="0,-1"
       id="guide824" />
    <sodipodi:guide
       position="-8.2732978,71.225743"
       orientation="0,-1"
       id="guide826" />
    <sodipodi:guide
       position="-28.834836,81.220933"
       orientation="1,0"
       id="guide828" />
    <sodipodi:guide
       position="-65.38868,106.20892"
       orientation="0,-1"
       id="guide2362" />
    <sodipodi:guide
       position="89.214808,22.132127"
       orientation="0,-1"
       id="guide4228" />
  </sodipodi:namedview>
  <defs
     id="defs2" />
  <g
     inkscape:label="Layer 1"
     inkscape:groupmode="layer"
     id="layer1"
     transform="translate(-28.834837,-86.504101)">
    <g
       aria-label="PHYCHE"
       id="text15670"
       style="font-weight:bold;font-size:14.6325px;-inkscape-font-specification:'sans-serif, Bold';letter-spacing:3.65813px;stroke-width:0.365813">
      <g
         aria-label="S"
         id="text4139"
         style="font-size:14.121px;letter-spacing:14.121px;fill:#ff6600;stroke-width:0.129141"
         transform="translate(-0.64254807,-0.01902717)">
        <path
           d="m 84.044794,34.684924 q 0,1.516904 -1.289369,2.468417 -1.282473,0.944617 -3.48888,0.944617 -1.275578,0 -2.227091,-0.22064 -0.944618,-0.227536 -1.77202,-0.572287 v -2.461522 h 0.289591 q 0.820507,0.655027 1.834075,1.006673 1.020463,0.351646 1.958186,0.351646 0.241325,0 0.634341,-0.04137 0.393016,-0.04137 0.641237,-0.137901 0.303381,-0.12411 0.496442,-0.310276 0.199955,-0.186165 0.199955,-0.551601 0,-0.337856 -0.289591,-0.579182 -0.282695,-0.24822 -0.834297,-0.379226 -0.579182,-0.1379 -1.227314,-0.255116 -0.641236,-0.12411 -1.206628,-0.310275 -1.296264,-0.420597 -1.86855,-1.137679 -0.565392,-0.723977 -0.565392,-1.792705 0,-1.434164 1.282474,-2.337411 1.289368,-0.910143 3.309609,-0.910143 1.013568,0 1.999556,0.199956 0.992883,0.19306 1.71686,0.489546 v 2.364992 h -0.282696 q -0.620552,-0.496442 -1.523799,-0.827403 -0.896353,-0.337856 -1.834076,-0.337856 -0.330961,0 -0.661921,0.04827 -0.324066,0.04137 -0.627447,0.165481 -0.268906,0.103425 -0.461967,0.317171 -0.19306,0.20685 -0.19306,0.475756 0,0.406806 0.310276,0.627447 0.310276,0.213746 1.172153,0.393016 0.565392,0.117215 1.082518,0.227536 0.524022,0.11032 1.123888,0.303381 1.179049,0.386121 1.737545,1.054938 0.565392,0.661922 0.565392,1.723755 z"
           id="path4221" />
      </g>
      <path
         d="m 69.890771,30.808711 q 0,0.714478 -0.250067,1.400376 -0.250067,0.678754 -0.714478,1.143164 -0.635885,0.62874 -1.42181,0.950255 -0.778781,0.321515 -1.943379,0.321515 h -1.707601 v 3.465216 h -2.743594 v -10.63857 h 4.515498 q 1.014558,0 1.707601,0.178619 0.700188,0.171475 1.236046,0.521569 0.64303,0.421542 0.978835,1.078861 0.342949,0.657319 0.342949,1.578995 z m -2.836476,0.0643 q 0,-0.450121 -0.242922,-0.771636 -0.242923,-0.328659 -0.564438,-0.457265 -0.428686,-0.171475 -0.835938,-0.185764 -0.407252,-0.02143 -1.086006,-0.02143 h -0.471555 v 3.18657 h 0.785925 q 0.700188,0 1.150309,-0.08574 0.457265,-0.08574 0.764491,-0.342949 0.264356,-0.228633 0.378673,-0.543003 0.121461,-0.321515 0.121461,-0.778781 z"
         id="path17438" />
      <path
         d="m 100.76336,27.450667 -3.922486,6.52318 v 4.11539 H 94.09728 v -3.986784 l -3.986785,-6.651786 h 3.115122 l 2.300618,4.11539 2.222025,-4.11539 z"
         id="path17442" />
      <path
         d="m 110.65173,38.296436 q -1.18603,0 -2.19345,-0.350094 -1.00027,-0.350094 -1.72189,-1.043137 -0.72162,-0.693044 -1.12173,-1.729036 -0.39296,-1.035992 -0.39296,-2.3935 0,-1.264625 0.37867,-2.293473 0.37868,-1.028847 1.1003,-1.764759 0.69304,-0.707333 1.71474,-1.093151 1.02885,-0.385818 2.24346,-0.385818 0.67161,0 1.20747,0.07859 0.543,0.07145 1.00027,0.192909 0.4787,0.135751 0.86452,0.307225 0.39296,0.16433 0.68589,0.307226 v 2.579263 h -0.31437 q -0.20005,-0.171474 -0.50727,-0.407252 -0.30009,-0.235777 -0.6859,-0.46441 -0.39297,-0.228633 -0.85023,-0.385818 -0.45727,-0.157185 -0.97884,-0.157185 -0.57872,0 -1.10029,0.185764 -0.52157,0.178619 -0.96455,0.600161 -0.42154,0.407252 -0.68589,1.078861 -0.25722,0.671609 -0.25722,1.629009 0,1.000269 0.27865,1.671877 0.28579,0.671609 0.71448,1.057427 0.43583,0.392963 0.97169,0.564437 0.53586,0.16433 1.05742,0.16433 0.50014,0 0.98598,-0.15004 0.49299,-0.15004 0.90739,-0.407252 0.35009,-0.207199 0.65017,-0.442976 0.30008,-0.235778 0.49299,-0.407253 h 0.28579 v 2.54354 q -0.4001,0.17862 -0.76449,0.335805 -0.36438,0.157185 -0.76449,0.271501 -0.52157,0.150041 -0.97883,0.228633 -0.45727,0.07859 -1.25748,0.07859 z"
         id="path17444" />
      <path
         d="m 129.62826,38.089237 h -2.7436 v -4.686972 h -4.05108 v 4.686972 h -2.7436 v -10.63857 h 2.7436 v 3.893902 h 4.05108 v -3.893902 h 2.7436 z"
         id="path17446"
         style="fill:#ff6600" />
      <path
         d="m 143.69632,38.089237 h -7.69492 v -10.63857 h 7.69492 v 2.057695 h -4.96562 v 1.836207 h 4.60838 v 2.057696 h -4.60838 v 2.629277 h 4.96562 z"
         id="path17448" />
      <rect
         style="fill:#000000;stroke:none;stroke-width:0.267579"
         id="rect18068"
         width="210.41458"
         height="55.733612"
         x="3.4810634e-07"
         y="74.963943"
         ry="0.65628302" />
      <path
         d="m 73.523401,102.03445 q 0,0.71448 -0.250067,1.40037 -0.250067,0.67875 -0.714478,1.14316 -0.635885,0.62874 -1.42181,0.95026 -0.778781,0.32151 -1.943379,0.32151 h -1.707601 v 3.46522 H 64.742472 V 98.676408 h 4.515498 q 1.014558,0 1.707601,0.178619 0.700188,0.171475 1.236046,0.521569 0.64303,0.421542 0.978835,1.078864 0.342949,0.65731 0.342949,1.57899 z m -2.836476,0.0643 q 0,-0.45012 -0.242922,-0.77164 -0.242923,-0.32866 -0.564438,-0.45726 -0.428686,-0.17147 -0.835938,-0.18576 -0.407252,-0.0214 -1.086006,-0.0214 h -0.471555 v 3.18656 h 0.785925 q 0.700188,0 1.150309,-0.0857 0.457265,-0.0857 0.764491,-0.34295 0.264356,-0.22863 0.378673,-0.543 0.121461,-0.32151 0.121461,-0.77878 z"
         id="path17438-9"
         style="font-weight:bold;font-size:14.6325px;-inkscape-font-specification:'sans-serif, Bold';letter-spacing:3.65813px;fill:#ffffff;stroke-width:0.365813" />
      <path
         d="m 104.39599,98.676408 -3.92249,6.523172 v 4.11539 h -2.743589 v -3.98678 l -3.98679,-6.651782 h 3.11513 l 2.30061,4.115382 2.222029,-4.115382 z"
         id="path17442-7"
         style="font-weight:bold;font-size:14.6325px;-inkscape-font-specification:'sans-serif, Bold';letter-spacing:3.65813px;fill:#ffffff;stroke-width:0.365813" />
      <path
         d="m 114.28436,109.52217 q -1.18603,0 -2.19345,-0.35009 -1.00027,-0.3501 -1.72189,-1.04314 -0.72162,-0.69305 -1.12173,-1.72904 -0.39296,-1.03599 -0.39296,-2.3935 0,-1.26462 0.37867,-2.29347 0.37868,-1.02884 1.1003,-1.764752 0.69304,-0.707333 1.71474,-1.093151 1.02885,-0.385818 2.24346,-0.385818 0.67161,0 1.20747,0.07859 0.543,0.07145 1.00027,0.192909 0.4787,0.135751 0.86452,0.307225 0.39296,0.16433 0.68589,0.307226 v 2.579261 h -0.31437 q -0.20005,-0.17148 -0.50727,-0.40725 -0.30009,-0.23578 -0.6859,-0.46441 -0.39297,-0.22864 -0.85023,-0.38582 -0.45727,-0.15718 -0.97884,-0.15718 -0.57872,0 -1.10029,0.18576 -0.52157,0.17862 -0.96455,0.60016 -0.42154,0.40725 -0.68589,1.07886 -0.25722,0.67161 -0.25722,1.629 0,1.00027 0.27865,1.67188 0.28579,0.67161 0.71448,1.05743 0.43583,0.39296 0.97169,0.56444 0.53586,0.16433 1.05742,0.16433 0.50014,0 0.98598,-0.15004 0.49299,-0.15004 0.90739,-0.40726 0.35009,-0.2072 0.65017,-0.44297 0.30008,-0.23578 0.49299,-0.40726 h 0.28579 v 2.54354 q -0.4001,0.17862 -0.76449,0.33581 -0.36438,0.15718 -0.76449,0.2715 -0.52157,0.15004 -0.97883,0.22863 -0.45727,0.0786 -1.25748,0.0786 z"
         id="path17444-8"
         style="font-weight:bold;font-size:14.6325px;-inkscape-font-specification:'sans-serif, Bold';letter-spacing:3.65813px;fill:#ffffff;stroke-width:0.365813" />
      <path
         d="m 133.26089,109.31497 h -2.7436 V 104.628 h -4.05108 v 4.68697 h -2.7436 V 98.676408 h 2.7436 v 3.893902 h 4.05108 v -3.893902 h 2.7436 z"
         id="path17446-1"
         style="font-weight:bold;font-size:14.6325px;-inkscape-font-specification:'sans-serif, Bold';letter-spacing:3.65813px;fill:#ff6600;stroke-width:0.365813" />
      <path
         d="m 147.32895,109.31497 h -7.69492 V 98.676408 h 7.69492 v 2.057692 h -4.96562 v 1.83621 h 4.60838 v 2.05769 h -4.60838 v 2.62928 h 4.96562 z"
         id="path17448-5"
         style="font-weight:bold;font-size:14.6325px;-inkscape-font-specification:'sans-serif, Bold';letter-spacing:3.65813px;fill:#ffffff;stroke-width:0.365813" />
      <rect
         style="fill:#ff6600;stroke:none;stroke-width:0.241272"
         id="rect14881-7"
         width="12.721803"
         height="34.983181"
         x="-163.60388"
         y="86.504105"
         ry="0.65628302"
         transform="scale(-1,1)" />
      <rect
         style="fill:#ffffff;stroke:none;stroke-width:0.197993"
         id="rect14883-3"
         width="11.360652"
         height="26.380495"
         x="-174.96452"
         y="90.80545"
         ry="0.49489695"
         transform="scale(-1,1)" />
      <rect
         style="fill:#ffffff;stroke:none;stroke-width:0.143974"
         id="rect14885-5"
         width="8.634551"
         height="18.353209"
         x="-183.59906"
         y="94.819092"
         ry="0.34430543"
         transform="scale(-1,1)" />
      <rect
         style="fill:#ff6600;stroke:none;stroke-width:0.241272"
         id="rect15112-7"
         width="12.721803"
         height="34.983181"
         x="48.830048"
         y="-121.48728"
         ry="0.65628302"
         transform="scale(1,-1)" />
      <rect
         style="fill:#ffffff;stroke:none;stroke-width:0.197993"
         id="rect15114-9"
         width="11.360652"
         height="26.380495"
         x="37.469391"
         y="-117.18593"
         ry="0.49489695"
         transform="scale(1,-1)" />
      <rect
         style="fill:#ffffff;stroke:none;stroke-width:0.143974"
         id="rect15116-6"
         width="8.634551"
         height="18.353209"
         x="28.834837"
         y="-113.1723"
         ry="0.34430543"
         transform="scale(1,-1)" />
      <g
         aria-label="S"
         id="text3627"
         style="font-size:14.121px;letter-spacing:14.121px;fill:#ff6600;stroke-width:0.129141"
         transform="translate(-0.07139423,0.09808934)">
        <path
           d="m 87.757295,105.79358 q 0,1.5169 -1.289368,2.46841 -1.282474,0.94462 -3.48888,0.94462 -1.275579,0 -2.227092,-0.22064 -0.944617,-0.22753 -1.77202,-0.57228 v -2.46153 h 0.289591 q 0.820508,0.65503 1.834075,1.00668 1.020463,0.35164 1.958186,0.35164 0.241326,0 0.634342,-0.0414 0.393016,-0.0414 0.641237,-0.1379 0.303381,-0.12411 0.496441,-0.31027 0.199956,-0.18617 0.199956,-0.55161 0,-0.33785 -0.289591,-0.57918 -0.282696,-0.24822 -0.834297,-0.37922 -0.579182,-0.1379 -1.227314,-0.25512 -0.641237,-0.12411 -1.206628,-0.31028 -1.296264,-0.42059 -1.868551,-1.13767 -0.565391,-0.72398 -0.565391,-1.79271 0,-1.43416 1.282473,-2.33741 1.289369,-0.910143 3.30961,-0.910143 1.013568,0 1.999555,0.199956 0.992883,0.19306 1.71686,0.489546 v 2.364991 h -0.282695 q -0.620552,-0.49644 -1.5238,-0.8274 -0.896352,-0.33786 -1.834075,-0.33786 -0.330961,0 -0.661922,0.0483 -0.324066,0.0414 -0.627447,0.16548 -0.268906,0.10342 -0.461966,0.31717 -0.193061,0.20685 -0.193061,0.47576 0,0.4068 0.310276,0.62744 0.310276,0.21375 1.172154,0.39302 0.565391,0.11721 1.082518,0.22753 0.524021,0.11032 1.123888,0.30338 1.179048,0.38613 1.737545,1.05494 0.565391,0.66192 0.565391,1.72376 z"
           id="path4230" />
      </g>
    </g>
    <rect
       style="fill:#ff6600;stroke:none;stroke-width:0.241272"
       id="rect14881"
       width="12.721803"
       height="34.983181"
       x="-159.97125"
       y="15.27836"
       ry="0.65628302"
       transform="scale(-1,1)" />
    <rect
       style="fill:#000000;stroke:none;stroke-width:0.197993"
       id="rect14883"
       width="11.360652"
       height="26.380495"
       x="-171.33189"
       y="19.579704"
       ry="0.49489695"
       transform="scale(-1,1)" />
    <rect
       style="fill:#000000;stroke:none;stroke-width:0.143974"
       id="rect14885"
       width="8.634551"
       height="18.353209"
       x="-179.96645"
       y="23.593348"
       ry="0.34430543"
       transform="scale(-1,1)" />
    <rect
       style="fill:#ff6600;stroke:none;stroke-width:0.241272"
       id="rect15112"
       width="12.721803"
       height="34.983181"
       x="45.197414"
       y="-50.261539"
       ry="0.65628302"
       transform="scale(1,-1)" />
    <rect
       style="fill:#000000;stroke:none;stroke-width:0.197993"
       id="rect15114"
       width="11.360652"
       height="26.380495"
       x="33.836761"
       y="-45.960194"
       ry="0.49489695"
       transform="scale(1,-1)" />
    <rect
       style="fill:#000000;stroke:none;stroke-width:0.143974"
       id="rect15116"
       width="8.634551"
       height="18.353209"
       x="25.202208"
       y="-41.946552"
       ry="0.34430543"
       transform="scale(1,-1)" />
  </g>
</svg>
